# xmcd
#
# Track frame offsets: 
#        150
#        18502
#        41141
#        55569
#        81226
#        94256
#        113606
#        130486
#        140297
#        152582
#        179256
#        195816
#
# Disc length: 3165 seconds
#
# Revision: 0
# Processed by: cddbd v1.5.2PL0 Copyright (c) Steve Scherf et al.
# Submitted via: ExactAudioCopy v0.99pb5
#
DISCID=930c5b0c
DTITLE=BluesMotel - Built for Comfort
DYEAR=2010
DGENRE=Blues
TTITLE0=Built for Comfort
TTITLE1=Hoochie Coochie Man
TTITLE2=Spoonful
TTITLE3=Key To The Highway
TTITLE4=Just A Dream
TTITLE5=Don't Stay Out All Night Long
TTITLE6=I Just Wanna Make Love To You
TTITLE7=I'm Free
TTITLE8=Boom Boom, Out Go The Lights
TTITLE9=Smokestack Lightnin'
TTITLE10=Stop Breakin' Down
TTITLE11=Long Distance Call
EXTD=
EXTT0=
EXTT1=
EXTT2=
EXTT3=
EXTT4=
EXTT5=
EXTT6=
EXTT7=
EXTT8=
EXTT9=
EXTT10=
EXTT11=
PLAYORDER=
